<?xml version="1.0" encoding="UTF-8"?>
<svg id="Ebene_2" data-name="Ebene 2" xmlns="http://www.w3.org/2000/svg" viewBox="0 0 217.86 51.88">
  <defs>
    <style>
      .cls-1 {
        fill: none;
        stroke: #922c37;
        stroke-linecap: round;
        stroke-miterlimit: 10;
        stroke-width: 3.04px;
      }

      .cls-2 {
        opacity: .6;
      }
    </style>
  </defs>
  <g id="Ebene_1-2" data-name="Ebene 1">
    <g>
      <g>
        <path d="M46.64,25.7v-14.75h9.15v1.92h-6.92v4.49h6.27v1.91h-6.27v6.43h-2.23Z"/>
        <path d="M58.35,25.7v-11.06h2.08v1.76h.11c.2-.6.56-1.06,1.07-1.41.51-.34,1.09-.52,1.74-.52.13,0,.29,0,.48.01.18,0,.33.02.44.04v2.06c-.09-.02-.24-.05-.46-.08s-.44-.05-.66-.05c-.51,0-.96.11-1.36.32-.4.21-.71.51-.94.89-.23.38-.35.81-.35,1.29v6.76h-2.15Z"/>
        <path d="M69.36,25.94c-.7,0-1.33-.13-1.9-.39-.57-.26-1.01-.64-1.34-1.14-.33-.5-.49-1.11-.49-1.84,0-.62.12-1.14.36-1.54s.56-.72.97-.96c.41-.23.86-.41,1.37-.53.5-.12,1.02-.21,1.54-.27.66-.08,1.2-.14,1.61-.19.41-.05.71-.13.9-.25.19-.12.28-.3.28-.56v-.05c0-.63-.18-1.12-.53-1.46-.35-.35-.88-.52-1.57-.52s-1.3.16-1.71.48c-.42.32-.7.67-.86,1.06l-2.02-.46c.24-.67.59-1.22,1.05-1.63.46-.41,1-.72,1.6-.91.61-.19,1.24-.28,1.91-.28.44,0,.91.05,1.41.15.5.1.96.29,1.4.57.43.27.79.66,1.07,1.17s.42,1.16.42,1.97v7.35h-2.1v-1.51h-.09c-.14.28-.35.55-.63.82-.28.27-.64.49-1.07.67-.44.18-.96.27-1.57.27ZM69.83,24.22c.6,0,1.11-.12,1.53-.35s.75-.54.97-.93c.22-.38.34-.79.34-1.23v-1.43c-.08.08-.22.15-.44.21-.22.06-.47.12-.75.17-.28.05-.55.09-.81.12-.26.04-.48.07-.66.09-.42.05-.8.14-1.14.27-.34.13-.62.3-.82.54s-.31.54-.31.93c0,.53.2.93.59,1.21s.9.41,1.51.41Z"/>
        <path d="M79.84,19.13v6.57h-2.15v-11.06h2.07v1.8h.14c.25-.59.65-1.06,1.2-1.41.54-.35,1.23-.53,2.06-.53.75,0,1.41.16,1.98.47s1.01.78,1.32,1.4c.31.62.47,1.38.47,2.3v7.04h-2.15v-6.78c0-.8-.21-1.43-.63-1.88-.42-.45-.99-.68-1.72-.68-.5,0-.94.11-1.33.32s-.69.53-.91.95-.33.92-.33,1.5Z"/>
        <path d="M89.8,25.7v-14.75h2.15v14.75h-2.15ZM91.78,21.95v-2.63s.36,0,.36,0l4.41-4.68h2.58l-5.03,5.33h-.34l-1.98,1.98ZM96.78,25.7l-3.96-5.26,1.48-1.51,5.12,6.76h-2.64Z"/>
        <path d="M115.91,14.64l-4.01,11.06h-2.3l-4.02-11.06h2.31l2.8,8.51h.12l2.79-8.51h2.31Z"/>
        <path d="M121.16,25.94c-.7,0-1.33-.13-1.9-.39-.57-.26-1.01-.64-1.34-1.14-.33-.5-.49-1.11-.49-1.84,0-.62.12-1.14.36-1.54s.56-.72.97-.96c.41-.23.86-.41,1.37-.53.5-.12,1.02-.21,1.54-.27.66-.08,1.2-.14,1.61-.19.41-.05.71-.13.9-.25.19-.12.28-.3.28-.56v-.05c0-.63-.18-1.12-.53-1.46-.35-.35-.88-.52-1.57-.52s-1.3.16-1.71.48c-.42.32-.7.67-.86,1.06l-2.02-.46c.24-.67.59-1.22,1.05-1.63.46-.41,1-.72,1.6-.91.61-.19,1.24-.28,1.91-.28.44,0,.91.05,1.41.15.5.1.96.29,1.4.57.43.27.79.66,1.07,1.17s.42,1.16.42,1.97v7.35h-2.1v-1.51h-.09c-.14.28-.35.55-.63.82-.28.27-.64.49-1.07.67-.44.18-.96.27-1.57.27ZM121.63,24.22c.6,0,1.11-.12,1.53-.35s.75-.54.97-.93c.22-.38.34-.79.34-1.23v-1.43c-.08.08-.22.15-.44.21-.22.06-.47.12-.75.17-.28.05-.55.09-.81.12-.26.04-.48.07-.66.09-.42.05-.8.14-1.14.27-.34.13-.62.3-.82.54s-.31.54-.31.93c0,.53.2.93.59,1.21s.9.41,1.51.41Z"/>
        <path d="M131.64,19.13v6.57h-2.15v-11.06h2.07v1.8h.14c.25-.59.65-1.06,1.2-1.41.54-.35,1.23-.53,2.06-.53.75,0,1.41.16,1.98.47s1.01.78,1.32,1.4c.31.62.47,1.38.47,2.3v7.04h-2.15v-6.78c0-.8-.21-1.43-.63-1.88-.42-.45-.99-.68-1.72-.68-.5,0-.94.11-1.33.32s-.69.53-.91.95-.33.92-.33,1.5Z"/>
        <path d="M151.91,25.7h-4.77v-14.75h4.93c1.45,0,2.69.29,3.72.88,1.04.59,1.83,1.43,2.39,2.53s.83,2.41.83,3.94-.28,2.86-.84,3.96-1.37,1.95-2.42,2.55c-1.06.59-2.33.89-3.83.89ZM149.37,23.76h2.43c1.12,0,2.06-.21,2.8-.64s1.3-1.04,1.67-1.85c.37-.81.55-1.8.55-2.96s-.18-2.14-.55-2.95c-.37-.81-.91-1.42-1.64-1.84-.73-.42-1.63-.63-2.7-.63h-2.56v10.86Z"/>
        <path d="M162.69,12.93c-.37,0-.69-.13-.96-.38-.27-.25-.4-.55-.4-.9s.13-.66.4-.91c.27-.25.59-.38.96-.38s.69.13.96.38c.27.25.4.55.4.9s-.13.66-.4.91c-.27.25-.59.38-.96.38ZM161.6,25.7v-11.06h2.15v11.06h-2.15Z"/>
        <path d="M168.8,19.13v6.57h-2.15v-11.06h2.07v1.8h.14c.25-.59.65-1.06,1.2-1.41.54-.35,1.23-.53,2.06-.53.75,0,1.41.16,1.98.47s1.01.78,1.32,1.4c.31.62.47,1.38.47,2.3v7.04h-2.15v-6.78c0-.8-.21-1.43-.63-1.88-.42-.45-.99-.68-1.72-.68-.5,0-.94.11-1.33.32s-.69.53-.91.95-.33.92-.33,1.5Z"/>
        <path d="M183.93,14.64v1.73h-6.04v-1.73h6.04ZM179.5,11.99h2.15v10.46c0,.42.06.73.19.94.12.21.29.35.49.42.2.07.42.11.65.11.17,0,.32-.01.45-.04.13-.02.23-.04.3-.06l.39,1.78c-.12.05-.3.1-.53.15-.23.05-.52.08-.86.08-.57,0-1.09-.09-1.58-.3-.49-.21-.89-.54-1.19-.98-.3-.44-.45-1-.45-1.66v-10.91Z"/>
        <path d="M188.45,19.13v6.57h-2.15v-14.75h2.13v5.49h.14c.26-.6.66-1.07,1.19-1.42.53-.35,1.23-.53,2.09-.53.76,0,1.42.16,1.99.47.57.31,1.01.78,1.32,1.39s.47,1.39.47,2.31v7.04h-2.15v-6.78c0-.81-.21-1.44-.63-1.89-.42-.45-1-.67-1.74-.67-.51,0-.96.11-1.36.32s-.72.53-.94.95-.34.92-.34,1.5Z"/>
        <path d="M203.28,25.92c-1.09,0-2.03-.23-2.81-.7s-1.39-1.13-1.81-1.98c-.42-.85-.64-1.85-.64-3s.21-2.13.64-3,1.02-1.54,1.79-2.02,1.66-.73,2.69-.73c.62,0,1.23.1,1.81.31.59.21,1.11.53,1.58.97.47.44.83,1.01,1.1,1.72.27.7.4,1.56.4,2.56v.76h-8.79v-1.61h6.68c0-.57-.12-1.07-.35-1.51-.23-.44-.55-.79-.97-1.04-.41-.25-.9-.38-1.46-.38-.61,0-1.13.15-1.58.44-.45.3-.79.68-1.04,1.15s-.36.99-.36,1.54v1.26c0,.74.13,1.37.39,1.89.26.52.63.91,1.1,1.18.47.27,1.02.41,1.65.41.41,0,.78-.06,1.12-.18s.63-.29.87-.53c.25-.24.43-.53.56-.87l2.04.37c-.16.6-.46,1.12-.88,1.57s-.95.8-1.58,1.04c-.63.25-1.35.37-2.16.37Z"/>
        <path d="M210.42,25.7v-11.06h2.08v1.76h.12c.2-.6.56-1.06,1.07-1.41.51-.34,1.09-.52,1.74-.52.13,0,.29,0,.48.01.18,0,.33.02.44.04v2.06c-.09-.02-.24-.05-.46-.08s-.44-.05-.66-.05c-.51,0-.96.11-1.36.32-.4.21-.71.51-.94.89-.23.38-.35.81-.35,1.29v6.76h-2.15Z"/>
      </g>
      <g class="cls-2">
        <path d="M46.64,41.78v-8.73h5.23v.94h-4.18v2.95h3.78v.94h-3.78v3.9h-1.06Z"/>
        <path d="M55.47,41.94c-.42,0-.79-.08-1.13-.24-.34-.16-.61-.39-.81-.69-.2-.3-.3-.66-.3-1.09,0-.38.07-.68.22-.91.15-.23.34-.42.59-.55.25-.13.52-.23.82-.3.3-.07.6-.12.91-.16.4-.05.72-.09.97-.12.25-.03.43-.07.55-.14.11-.07.17-.18.17-.34v-.03c0-.42-.11-.75-.34-.98-.23-.23-.57-.35-1.04-.35s-.86.11-1.13.32c-.27.21-.46.43-.58.67l-.95-.34c.17-.4.4-.71.68-.93.29-.22.6-.38.94-.47.34-.09.67-.13,1-.13.21,0,.45.03.73.08.27.05.54.15.8.3.26.15.47.38.64.69s.26.72.26,1.24v4.31h-1.01v-.89h-.05c-.07.14-.18.29-.34.46-.16.16-.37.3-.63.41-.26.11-.59.17-.97.17ZM55.62,41.03c.4,0,.73-.08,1.01-.23.27-.16.48-.36.62-.6s.21-.51.21-.78v-.92c-.04.05-.14.1-.28.14-.14.04-.31.08-.49.11-.19.03-.37.06-.54.08s-.32.04-.42.05c-.26.03-.5.09-.73.16-.23.08-.41.19-.55.34-.14.15-.21.35-.21.61,0,.35.13.61.39.79.26.18.59.27.99.27Z"/>
        <path d="M62.97,41.92c-.61,0-1.14-.14-1.59-.43-.44-.29-.78-.69-1.02-1.2-.24-.51-.36-1.09-.36-1.74s.12-1.25.37-1.76c.25-.51.59-.91,1.03-1.2.44-.29.96-.43,1.55-.43.46,0,.88.09,1.24.26.37.17.67.41.91.72.24.31.38.67.44,1.07h-1.01c-.08-.3-.25-.56-.51-.79-.26-.23-.62-.35-1.06-.35-.39,0-.74.1-1.03.3s-.52.49-.69.86c-.16.37-.25.8-.25,1.29s.08.95.24,1.32c.16.38.39.67.68.87.29.21.64.31,1.04.31.26,0,.5-.05.71-.14.21-.09.39-.22.54-.39.15-.17.25-.38.32-.61h1.01c-.06.39-.2.73-.42,1.04-.22.31-.52.55-.88.73-.37.18-.79.27-1.27.27Z"/>
        <path d="M68.01,37.84v3.94h-1.01v-8.73h1.01v3.2h.08c.15-.34.38-.61.69-.81.31-.2.72-.3,1.23-.3.45,0,.84.09,1.17.27.33.18.6.45.78.81.19.36.28.83.28,1.39v4.16h-1.01v-4.09c0-.52-.13-.92-.4-1.21s-.64-.43-1.11-.43c-.33,0-.62.07-.88.21-.26.14-.46.34-.61.61-.15.27-.22.59-.22.97Z"/>
        <path d="M76.02,41.94c-.42,0-.79-.08-1.13-.24-.34-.16-.61-.39-.81-.69-.2-.3-.3-.66-.3-1.09,0-.38.07-.68.22-.91.15-.23.34-.42.59-.55.25-.13.52-.23.82-.3.3-.07.6-.12.91-.16.4-.05.72-.09.97-.12.25-.03.43-.07.55-.14.11-.07.17-.18.17-.34v-.03c0-.42-.11-.75-.34-.98-.23-.23-.57-.35-1.04-.35s-.86.11-1.13.32c-.27.21-.46.43-.58.67l-.95-.34c.17-.4.4-.71.68-.93.29-.22.6-.38.94-.47.34-.09.67-.13,1-.13.21,0,.45.03.73.08.27.05.54.15.8.3.26.15.47.38.64.69s.26.72.26,1.24v4.31h-1.01v-.89h-.05c-.07.14-.18.29-.34.46-.16.16-.37.3-.63.41-.26.11-.59.17-.97.17ZM76.18,41.03c.4,0,.73-.08,1.01-.23.27-.16.48-.36.62-.6s.21-.51.21-.78v-.92c-.04.05-.14.1-.28.14-.14.04-.31.08-.49.11-.19.03-.37.06-.54.08s-.32.04-.42.05c-.26.03-.5.09-.73.16-.23.08-.41.19-.55.34-.14.15-.21.35-.21.61,0,.35.13.61.39.79.26.18.59.27.99.27Z"/>
        <path d="M80.86,41.78v-6.54h.97v.99h.07c.12-.32.33-.59.65-.79.31-.2.67-.3,1.06-.3.07,0,.17,0,.28,0s.19,0,.25.01v1.02s-.11-.02-.23-.04-.25-.03-.38-.03c-.32,0-.6.07-.85.2s-.44.31-.59.54c-.14.23-.21.5-.21.79v4.14h-1.01Z"/>
        <path d="M85.14,41.78v-.77l3.72-4.77v-.07h-3.6v-.94h4.89v.8l-3.61,4.74v.07h3.73v.94h-5.13Z"/>
        <path d="M94.67,35.24v.85h-3.39v-.85h3.39ZM92.27,33.67h1.01v6.24c0,.28.04.5.13.64.08.14.19.23.32.28.13.05.27.07.42.07.11,0,.2,0,.27-.02.07-.01.13-.02.17-.03l.2.9c-.07.03-.16.05-.29.08-.12.03-.28.04-.46.04-.28,0-.56-.06-.83-.18s-.5-.31-.67-.56-.27-.57-.27-.95v-6.51Z"/>
        <path d="M102.48,35.24v.85h-3.53v-.85h3.53ZM100.01,41.78v-7.45c0-.38.09-.69.26-.94.18-.25.4-.44.69-.56s.58-.19.89-.19c.25,0,.45.02.6.06.16.04.27.08.35.11l-.29.87c-.05-.02-.12-.04-.21-.06-.09-.03-.21-.04-.35-.04-.33,0-.57.08-.72.25-.15.17-.22.41-.22.74v7.21h-1.01Z"/>
        <path d="M108.02,39.11v-3.87h1.01v6.54h-1.01v-1.11h-.07c-.15.33-.39.61-.72.85-.32.23-.73.35-1.23.35-.41,0-.77-.09-1.09-.27-.32-.18-.57-.45-.75-.82-.18-.37-.27-.83-.27-1.38v-4.16h1.01v4.09c0,.48.13.86.4,1.14.27.28.61.43,1.03.43.25,0,.5-.06.77-.19.26-.13.48-.32.66-.59.18-.26.27-.6.27-1.01ZM105.24,34.15c-.18,0-.34-.07-.48-.21s-.21-.3-.21-.48c0-.2.07-.36.21-.49.14-.13.3-.19.48-.19.2,0,.36.06.49.19.13.13.19.29.19.49,0,.18-.06.34-.19.48s-.29.21-.49.21ZM107.69,34.15c-.18,0-.34-.07-.48-.21-.14-.14-.21-.3-.21-.48,0-.2.07-.36.21-.49.14-.13.3-.19.48-.19.2,0,.36.06.49.19.13.13.19.29.19.49,0,.18-.06.34-.19.48s-.29.21-.49.21Z"/>
        <path d="M110.86,41.78v-6.54h.97v.99h.07c.12-.32.33-.59.65-.79.31-.2.67-.3,1.06-.3.07,0,.17,0,.28,0s.19,0,.25.01v1.02s-.11-.02-.23-.04-.25-.03-.38-.03c-.32,0-.6.07-.85.2s-.44.31-.59.54c-.14.23-.21.5-.21.79v4.14h-1.01Z"/>
        <path d="M119.2,41.78h-1.11l3.2-8.73h1.09l3.2,8.73h-1.11l-2.61-7.35h-.07l-2.61,7.35ZM119.61,38.37h4.47v.94h-4.47v-.94Z"/>
        <path d="M127.82,33.06v8.73h-1.01v-8.73h1.01Z"/>
        <path d="M130.67,33.06v8.73h-1.01v-8.73h1.01Z"/>
        <path d="M135.15,44.37c-.49,0-.9-.06-1.25-.18-.35-.12-.64-.29-.87-.49-.23-.2-.42-.41-.55-.64l.8-.56c.09.12.21.26.35.41.14.16.33.29.57.41.24.12.56.17.96.17.53,0,.96-.13,1.31-.38s.52-.66.52-1.2v-1.33h-.08c-.07.12-.18.27-.31.44-.13.17-.33.33-.58.46s-.59.2-1.02.2c-.53,0-1-.12-1.42-.38s-.75-.61-.99-1.09c-.24-.48-.36-1.06-.36-1.74s.12-1.25.35-1.75c.24-.5.56-.88.98-1.16.42-.27.91-.41,1.46-.41.43,0,.76.07,1.02.21s.44.3.58.48.24.32.31.44h.1v-1.04h.97v6.73c0,.56-.13,1.02-.38,1.38-.25.35-.6.61-1.02.78-.43.17-.9.25-1.43.25ZM135.12,40.78c.4,0,.74-.09,1.02-.28.28-.18.49-.45.63-.8s.22-.76.22-1.24-.07-.89-.21-1.25c-.14-.36-.35-.64-.63-.85-.28-.21-.62-.31-1.03-.31s-.78.11-1.06.32-.49.51-.64.87c-.14.36-.21.77-.21,1.21s.07.86.22,1.2c.14.35.36.62.64.82s.63.3,1.05.3Z"/>
        <path d="M142.57,41.92c-.63,0-1.17-.14-1.63-.42-.46-.28-.81-.67-1.05-1.18-.25-.5-.37-1.09-.37-1.76s.12-1.26.37-1.77c.25-.51.59-.91,1.03-1.2.44-.29.96-.43,1.55-.43.34,0,.68.06,1.01.17.33.11.64.3.91.55.27.25.49.59.65,1.01.16.42.24.93.24,1.54v.43h-5.05v-.87h4.02c0-.37-.07-.7-.22-.99-.15-.29-.35-.52-.62-.69s-.58-.25-.95-.25c-.4,0-.75.1-1.04.3-.29.2-.52.45-.67.77-.16.32-.23.65-.23,1.01v.58c0,.5.09.91.26,1.26.17.34.41.6.72.78s.66.27,1.07.27c.26,0,.5-.04.72-.11s.4-.19.56-.34.28-.34.36-.57l.97.27c-.1.33-.27.62-.52.87-.24.25-.54.44-.9.58-.36.14-.75.21-1.2.21Z"/>
        <path d="M146.81,41.78v-6.54h.97v1.02h.08c.14-.35.36-.62.66-.82.3-.19.67-.29,1.1-.29s.79.1,1.08.29c.29.2.51.47.68.82h.07c.17-.34.42-.61.75-.81s.74-.3,1.21-.3c.58,0,1.06.18,1.44.55s.56.93.56,1.7v4.38h-1.01v-4.38c0-.48-.13-.83-.4-1.04s-.58-.31-.93-.31c-.46,0-.82.14-1.07.42s-.38.63-.38,1.05v4.26h-1.02v-4.48c0-.37-.12-.67-.36-.9s-.55-.34-.93-.34c-.26,0-.5.07-.73.21-.23.14-.41.33-.55.58-.14.25-.21.53-.21.85v4.09h-1.01Z"/>
        <path d="M159.99,41.92c-.63,0-1.17-.14-1.63-.42-.46-.28-.81-.67-1.05-1.18-.25-.5-.37-1.09-.37-1.76s.12-1.26.37-1.77c.25-.51.59-.91,1.03-1.2.44-.29.96-.43,1.55-.43.34,0,.68.06,1.01.17.33.11.64.3.91.55.27.25.49.59.65,1.01.16.42.24.93.24,1.54v.43h-5.05v-.87h4.02c0-.37-.07-.7-.22-.99-.15-.29-.35-.52-.62-.69s-.58-.25-.95-.25c-.4,0-.75.1-1.04.3-.29.2-.52.45-.67.77-.16.32-.23.65-.23,1.01v.58c0,.5.09.91.26,1.26.17.34.41.6.72.78s.66.27,1.07.27c.26,0,.5-.04.72-.11s.4-.19.56-.34.28-.34.36-.57l.97.27c-.1.33-.27.62-.52.87-.24.25-.54.44-.9.58-.36.14-.75.21-1.2.21Z"/>
        <path d="M164.74,34.15c-.2,0-.36-.07-.5-.2-.14-.13-.21-.29-.21-.48s.07-.35.21-.48c.14-.13.31-.2.5-.2s.36.07.51.2c.14.13.21.29.21.48s-.07.35-.21.48c-.14.13-.31.2-.51.2ZM164.23,41.78v-6.54h1.01v6.54h-1.01Z"/>
        <path d="M168.08,37.84v3.94h-1.01v-6.54h.97v1.02h.08c.15-.33.39-.6.7-.8s.72-.3,1.21-.3c.44,0,.83.09,1.16.27.33.18.59.45.78.82.18.37.28.83.28,1.38v4.16h-1.01v-4.09c0-.51-.13-.92-.4-1.2-.27-.29-.63-.43-1.1-.43-.32,0-.61.07-.86.21-.25.14-.45.34-.59.61-.15.27-.22.59-.22.97Z"/>
        <path d="M174.1,41.78v-6.54h.97v1.02h.08c.14-.35.36-.62.66-.82.3-.19.67-.29,1.1-.29s.79.1,1.08.29c.29.2.51.47.68.82h.07c.17-.34.42-.61.75-.81s.74-.3,1.21-.3c.58,0,1.06.18,1.44.55s.56.93.56,1.7v4.38h-1.01v-4.38c0-.48-.13-.83-.4-1.04s-.58-.31-.93-.31c-.46,0-.82.14-1.07.42s-.38.63-.38,1.05v4.26h-1.02v-4.48c0-.37-.12-.67-.36-.9s-.55-.34-.93-.34c-.26,0-.5.07-.73.21-.23.14-.41.33-.55.58-.14.25-.21.53-.21.85v4.09h-1.01Z"/>
        <path d="M187.28,41.92c-.63,0-1.17-.14-1.63-.42-.46-.28-.81-.67-1.05-1.18-.25-.5-.37-1.09-.37-1.76s.12-1.26.37-1.77.59-.91,1.03-1.2c.44-.29.96-.43,1.55-.43.34,0,.68.06,1.01.17.33.11.64.3.91.55s.49.59.65,1.01c.16.42.24.93.24,1.54v.43h-5.04v-.87h4.02c0-.37-.07-.7-.22-.99-.15-.29-.35-.52-.62-.69s-.58-.25-.95-.25c-.4,0-.75.1-1.04.3-.29.2-.52.45-.67.77-.16.32-.23.65-.23,1.01v.58c0,.5.09.91.26,1.26.17.34.41.6.72.78s.66.27,1.07.27c.26,0,.5-.04.72-.11.21-.08.4-.19.56-.34s.28-.34.36-.57l.97.27c-.1.33-.27.62-.52.87-.24.25-.54.44-.9.58s-.75.21-1.2.21Z"/>
        <path d="M193.99,41.92c-.55,0-1.03-.14-1.45-.42-.42-.28-.74-.67-.98-1.18-.24-.51-.35-1.11-.35-1.8s.12-1.28.35-1.79c.24-.51.56-.9.98-1.17.42-.28.91-.41,1.46-.41.43,0,.76.07,1.01.21.25.14.44.3.57.48.13.18.24.32.31.44h.08v-3.22h1.01v8.73h-.97v-1.01h-.12c-.07.12-.18.27-.32.45-.14.18-.33.34-.58.48s-.59.21-1.01.21ZM194.13,41.02c.4,0,.74-.11,1.02-.32.28-.21.49-.51.63-.88.14-.38.22-.81.22-1.31s-.07-.92-.21-1.29c-.14-.37-.35-.65-.63-.86s-.62-.31-1.03-.31-.78.11-1.06.33c-.28.22-.5.51-.64.88-.14.37-.21.79-.21,1.25s.07.89.22,1.27c.14.38.36.68.64.9.28.22.63.33,1.05.33Z"/>
        <path d="M199.48,34.15c-.2,0-.36-.07-.5-.2-.14-.13-.21-.29-.21-.48s.07-.35.21-.48c.14-.13.31-.2.5-.2s.36.07.5.2c.14.13.21.29.21.48s-.07.35-.21.48c-.14.13-.31.2-.5.2ZM198.97,41.78v-6.54h1.01v6.54h-1.01Z"/>
        <path d="M201.63,41.78v-.77l3.72-4.77v-.07h-3.6v-.94h4.89v.8l-3.61,4.74v.07h3.73v.94h-5.13Z"/>
        <path d="M208.82,34.15c-.2,0-.36-.07-.5-.2-.14-.13-.21-.29-.21-.48s.07-.35.21-.48c.14-.13.31-.2.5-.2s.36.07.5.2c.14.13.21.29.21.48s-.07.35-.21.48c-.14.13-.31.2-.5.2ZM208.31,41.78v-6.54h1.01v6.54h-1.01Z"/>
        <path d="M212.16,37.84v3.94h-1.01v-6.54h.97v1.02h.08c.15-.33.39-.6.7-.8s.72-.3,1.21-.3c.44,0,.83.09,1.16.27.33.18.59.45.77.82.19.37.28.83.28,1.38v4.16h-1v-4.09c0-.51-.13-.92-.4-1.2-.27-.29-.63-.43-1.1-.43-.32,0-.61.07-.86.21-.25.14-.45.34-.59.61-.15.27-.22.59-.22.97Z"/>
      </g>
      <g>
        <line class="cls-1" x1="35.28" y1="1.52" x2="24.28" y2="12.52"/>
        <line class="cls-1" x1="9.18" y1="27.62" x2="1.52" y2="35.28"/>
        <line class="cls-1" x1="35.28" y1="35.28" x2="27.62" y2="27.62"/>
        <line class="cls-1" x1="12.52" y1="12.52" x2="1.52" y2="1.52"/>
        <path class="cls-1" d="M216.34,50.36H3.89c-.57,0-1.02-.5-.95-1.07l.87-7.8c.05-.49.46-.85.95-.85h2.32c.5,0,.91-.38.95-.87l1.14-12.15s.75-7.19.91-9.59c.15-2.15,1.01-4.09,2.43-5.51,1.51-1.5,3.59-2.43,5.89-2.43s4.38.93,5.88,2.43c1.43,1.42,2.28,3.36,2.43,5.51.1,1.44.96,12.86,1.62,21.73.04.5.45.88.96.88h3.84"/>
      </g>
    </g>
  </g>
</svg>